<?xml version="1.0" standalone="no"?>
<!DOCTYPE svg PUBLIC "-//W3C//DTD SVG 20010904//EN"
 "http://www.w3.org/TR/2001/REC-SVG-20010904/DTD/svg10.dtd">
<svg version="1.0" xmlns="http://www.w3.org/2000/svg"
 width="1024.000000pt" height="1024.000000pt" viewBox="0 0 1024.000000 1024.000000"
 preserveAspectRatio="xMidYMid meet">

<g transform="translate(0.000000,1024.000000) scale(0.100000,-0.100000)"
fill="#000000" stroke="none">
<path d="M0 5120 l0 -5120 5120 0 5120 0 0 5120 0 5120 -5120 0 -5120 0 0
-5120z m4460 3560 c0 -5 -5 -10 -11 -10 -5 0 -7 5 -4 10 3 6 8 10 11 10 2 0 4
-4 4 -10z m3858 -52 c-6 -18 -28 -21 -28 -4 0 9 7 16 16 16 9 0 14 -5 12 -12z
m-2048 -58 c0 -5 -4 -10 -10 -10 -5 0 -10 5 -10 10 0 6 5 10 10 10 6 0 10 -4
10 -10z m-1994 -293 c16 6 19 -23 4 -32 -14 -9 -40 13 -40 33 0 12 3 13 11 5
6 -6 18 -9 25 -6z m-2848 -157 c23 -121 76 -221 198 -370 53 -65 220 -230 232
-230 2 0 -11 26 -28 58 l-32 57 38 -45 c21 -25 52 -58 68 -73 31 -30 218 -148
224 -142 2 2 -6 18 -18 34 -26 37 -16 40 19 7 50 -48 283 -160 251 -121 -18
22 -7 19 78 -24 106 -53 244 -99 249 -84 3 8 16 4 39 -12 19 -13 80 -38 135
-55 194 -60 391 -162 354 -182 -12 -7 -13 -13 -4 -29 18 -35 4 -52 -36 -45
-31 6 -36 4 -44 -16 -14 -38 -36 -50 -73 -43 -25 5 -38 2 -47 -9 -8 -9 -23
-16 -35 -16 -20 0 -64 -24 -77 -42 -3 -4 -29 -10 -59 -13 -58 -6 -62 2 -8 16
22 5 3 6 -54 3 -95 -6 -165 8 -227 47 -40 24 -33 33 39 43 25 4 52 11 60 17
11 7 9 8 -11 4 -14 -4 -64 0 -111 9 -55 9 -97 12 -115 6 -24 -7 -20 -9 27 -10
30 -1 49 -4 41 -7 -11 -5 -11 -7 0 -14 12 -7 12 -9 0 -9 -10 0 -11 -3 -2 -14
10 -12 2 -17 -48 -32 -61 -17 -87 -41 -31 -29 40 9 38 -7 -2 -24 l-33 -14 35
-6 35 -6 -41 -19 c-22 -10 -41 -24 -41 -32 0 -8 19 0 48 21 48 36 69 43 69 24
0 -7 8 -18 18 -25 16 -11 15 -13 -10 -23 -18 -7 -26 -15 -22 -25 8 -22 -24
-27 -166 -29 l-122 -2 36 31 c20 17 33 34 29 37 -3 4 -29 7 -56 7 -44 0 -48
-2 -36 -16 11 -14 9 -20 -18 -44 -24 -21 -50 -31 -119 -43 -93 -16 -317 -32
-254 -18 l35 8 -40 3 c-22 2 -58 4 -80 5 -62 3 -203 76 -280 147 -36 33 -64
62 -63 64 2 2 40 -8 83 -21 44 -14 82 -25 85 -25 3 0 -17 14 -45 31 -63 39
-108 82 -147 137 -28 41 -29 43 -7 29 98 -63 325 -122 504 -132 72 -4 150 -10
175 -14 39 -5 46 -4 55 13 6 11 20 23 33 26 19 4 16 7 -23 21 -46 17 -60 8
-33 -19 17 -17 -12 -16 -82 3 -65 18 -73 18 -65 5 10 -16 -110 -12 -179 6 -33
9 -101 36 -149 61 -88 46 -201 128 -193 141 2 4 -2 13 -10 20 -8 7 -14 10 -14
6 0 -4 -14 5 -31 22 -29 27 -122 174 -115 181 1 2 34 -18 72 -43 127 -87 470
-239 506 -225 18 6 12 12 -38 38 -108 56 -179 96 -220 125 -29 21 -50 28 -75
27 -41 -3 -62 8 -55 28 3 8 2 11 -3 8 -21 -12 -143 191 -166 275 l-7 25 19
-27 c43 -62 224 -193 353 -256 145 -69 145 -67 5 23 -163 104 -274 239 -311
379 -19 70 -18 80 6 56 11 -11 26 -20 34 -20 12 0 10 11 -7 58 -16 45 -21 85
-24 189 -3 127 8 182 21 105 11 -65 157 -345 172 -329 2 1 -13 43 -33 92 -42
105 -54 225 -33 325 7 33 14 59 15 58 2 -2 8 -28 13 -58z m6537 -45 c0 -27
-31 -32 -38 -6 -6 24 1 33 23 29 8 -2 15 -12 15 -23z m-1105 -5 c0 -5 -4 -10
-10 -10 -5 0 -10 5 -10 10 0 6 5 10 10 10 6 0 10 -4 10 -10z m-3695 -88 c-8
-8 -37 10 -35 23 1 6 6 9 11 7 5 -1 13 6 17 15 6 14 8 12 10 -10 2 -16 1 -32
-3 -35z m5970 -77 c-27 -110 -71 -190 -155 -279 -82 -87 -79 -88 25 -10 89 67
149 128 174 179 16 31 20 35 21 18 0 -34 -49 -183 -76 -230 -30 -52 -31 -70
-2 -24 29 45 35 24 9 -31 -71 -151 -179 -250 -382 -348 -118 -57 -117 -64 2
-26 128 41 278 111 342 160 26 20 47 33 47 29 0 -13 -112 -152 -151 -188 -22
-19 -45 -33 -51 -29 -6 4 -8 3 -4 -4 8 -13 -36 -47 -116 -92 -32 -17 -58 -34
-58 -37 0 -14 222 40 256 62 33 22 30 7 -10 -40 -31 -37 -34 -38 -50 -22 -22
21 -46 22 -46 2 0 -9 -10 -20 -22 -25 -13 -5 -17 -9 -10 -9 7 -1 11 -5 7 -11
-3 -5 -13 -6 -22 -3 -11 4 -14 2 -9 -5 3 -6 -2 -16 -13 -21 -24 -14 -41 -14
-21 -1 12 7 10 9 -7 7 -12 0 -20 -4 -18 -8 8 -11 -54 -62 -68 -56 -9 3 -23 -4
-34 -15 -43 -47 -173 -87 -289 -89 -56 -1 -63 -2 -40 -9 102 -31 321 -19 447
23 41 14 75 24 76 23 2 -1 -11 -16 -29 -32 -21 -20 -29 -23 -25 -11 6 15 4 16
-16 5 -12 -7 -25 -11 -29 -10 -5 1 -8 -3 -8 -8 0 -6 -9 -10 -19 -10 -11 0 -23
-9 -26 -20 -3 -11 -12 -20 -20 -20 -7 0 -15 -7 -18 -14 -4 -10 -1 -14 11 -10
9 2 4 -2 -13 -10 -16 -8 -38 -15 -47 -16 -10 0 -18 -5 -18 -11 0 -7 9 -9 23
-5 12 3 47 9 77 12 l55 6 -25 -22 c-50 -42 -119 -70 -188 -76 -67 -6 -119 -22
-77 -24 l20 -1 -20 -9 c-33 -14 -182 -11 -269 5 -123 24 -206 46 -201 55 10
17 -107 31 -123 15 -3 -2 11 -4 31 -3 20 1 46 -6 59 -14 32 -21 131 -52 283
-89 138 -33 274 -41 344 -20 49 15 26 -4 -34 -27 -91 -36 -308 -39 -495 -7
l-35 6 35 -17 c19 -9 38 -17 41 -16 3 0 6 -6 6 -14 0 -12 -7 -14 -31 -9 -77
16 -98 15 -41 -3 84 -27 115 -40 115 -51 0 -4 15 -16 33 -25 l32 -17 -45 7
c-25 3 -65 14 -90 25 -58 23 -131 43 -151 40 -9 -1 -40 8 -70 19 -30 12 -55
21 -56 21 -15 -5 -32 7 -76 51 -29 29 -51 56 -50 60 2 4 -17 21 -41 37 -44 31
-56 48 -56 82 0 22 12 24 42 8 11 -6 22 -8 25 -6 3 3 -14 15 -36 27 -23 11
-40 24 -37 29 3 4 -17 25 -44 45 -28 21 -50 42 -50 47 0 5 21 9 48 9 26 0 65
7 87 15 l40 16 -35 -6 c-19 -3 -65 -9 -102 -12 -51 -4 -65 -8 -61 -19 7 -18
-48 -11 -202 23 -60 14 -123 27 -140 29 -16 3 -46 14 -65 24 -19 10 -55 24
-79 31 -24 7 -56 26 -72 42 -16 15 -34 25 -40 21 -29 -17 15 37 83 102 109
106 257 175 479 224 51 11 97 24 104 30 9 8 14 7 17 -1 4 -13 154 32 257 77
37 17 50 19 41 9 -17 -20 -5 -20 95 4 99 24 165 46 229 77 28 13 52 24 55 24
3 0 -11 -16 -30 -37 -21 -22 -27 -34 -16 -30 10 4 43 14 74 23 82 24 225 83
246 101 15 15 17 15 17 -1 0 -15 4 -14 41 5 23 11 52 31 65 44 13 13 24 19 24
14 0 -15 98 42 211 122 112 79 206 177 240 250 22 47 24 48 27 23 2 -16 -4
-60 -13 -99z m-4731 3 c-12 -19 -20 -5 -15 30 l4 37 8 -29 c5 -16 6 -33 3 -38z
m2281 -27 c-9 -16 -25 -3 -18 15 4 10 9 12 15 6 6 -6 7 -15 3 -21z m-3039 -98
c-10 -10 -19 5 -10 18 6 11 8 11 12 0 2 -7 1 -15 -2 -18z m1859 7 c3 -5 1 -10
-4 -10 -6 0 -11 5 -11 10 0 6 2 10 4 10 3 0 8 -4 11 -10z m1720 -34 c12 -8 33
-12 56 -9 49 7 63 -16 44 -70 -7 -21 -15 -40 -17 -41 -1 -1 -18 -13 -36 -25
l-32 -22 -28 32 c-38 45 -62 82 -62 97 0 15 31 50 46 51 5 1 19 -5 29 -13z
m-1007 -24 c3 -21 1 -22 -17 -12 -26 13 -28 43 -3 38 9 -2 18 -14 20 -26z
m-400 -40 c6 -18 -15 -14 -22 4 -4 10 -1 14 6 12 6 -2 14 -10 16 -16z m532
-55 c0 -20 0 -20 -15 -1 -20 27 -20 51 0 34 8 -7 15 -22 15 -33z m-3280 -2 c0
-8 -4 -15 -9 -15 -13 0 -22 16 -14 24 11 11 23 6 23 -9z m1175 -25 c12 -14 16
-28 12 -50 -7 -33 7 -73 37 -107 35 -40 8 -37 -30 3 -40 44 -64 93 -64 134 0
44 16 52 45 20z m705 -14 c0 -9 -30 -14 -35 -6 -4 6 3 10 14 10 12 0 21 -2 21
-4z m1170 -96 c-8 -5 -12 -12 -8 -15 3 -3 13 1 21 10 20 20 28 19 20 -2 -7
-17 -5 -17 21 0 34 23 41 17 40 -33 -1 -22 3 -37 8 -34 5 3 23 7 41 10 23 2
28 1 17 -6 -13 -8 -11 -12 8 -26 16 -11 20 -20 14 -26 -5 -5 -8 -27 -5 -48 3
-21 1 -46 -5 -56 -9 -17 -11 -16 -17 9 -4 16 -5 48 -2 73 2 24 1 44 -4 44 -5
0 -9 -11 -9 -25 0 -26 -25 -45 -60 -45 -15 0 -25 -11 -36 -37 -9 -21 -27 -61
-40 -90 -13 -28 -24 -54 -24 -57 0 -3 17 -6 38 -6 65 0 84 -9 78 -36 -7 -28 8
-31 61 -12 34 12 58 4 33 -12 -13 -8 -12 -10 2 -10 9 0 20 -4 23 -10 4 -6 -7
-10 -25 -10 -22 0 -29 4 -25 13 4 6 1 5 -7 -4 -7 -9 -19 -14 -27 -11 -8 3 -11
0 -7 -7 5 -7 -7 -11 -38 -11 -25 0 -48 -4 -51 -10 -9 -15 -71 -12 -145 6 -59
14 -89 20 -227 40 -29 5 -43 3 -43 -5 0 -6 18 -11 43 -12 23 0 51 -4 62 -8 36
-14 -34 -41 -107 -41 -52 0 -68 -4 -88 -23 -14 -13 -38 -32 -53 -41 -15 -10
-27 -24 -27 -31 0 -14 -10 -18 -65 -29 -80 -16 -175 -52 -170 -64 3 -9 -3 -10
-20 -6 -25 6 -36 -11 -12 -19 26 -8 -56 -39 -91 -33 -33 5 -34 4 -17 -14 9
-10 34 -22 56 -25 37 -6 57 -20 46 -32 -4 -3 -20 -1 -36 5 -19 7 -33 7 -36 1
-4 -5 4 -9 16 -9 34 0 10 -19 -31 -25 -25 -4 -29 -3 -15 3 18 8 16 10 -12 16
-39 9 -44 26 -8 26 14 0 25 5 25 11 0 7 -15 10 -40 7 -41 -4 -45 0 -43 50 1
28 -22 9 -24 -20 -3 -33 -27 -67 -39 -55 -4 4 -2 19 5 33 6 14 9 29 6 34 -5 8
-50 -6 -102 -32 -11 -6 -27 -8 -35 -5 -8 3 -3 9 15 16 15 6 27 13 27 16 0 7
-47 -13 -94 -40 -24 -14 -46 -22 -50 -17 -4 4 -6 1 -4 -7 4 -19 -52 -48 -61
-32 -4 6 -22 13 -41 16 -18 2 -38 9 -43 14 -7 7 -15 7 -24 0 -16 -14 -19 11
-3 27 8 8 0 10 -25 9 -90 -6 -155 41 -155 111 l0 37 -102 -6 c-69 -5 -98 -4
-88 3 8 5 11 10 5 10 -5 0 -3 5 5 10 13 9 13 11 0 20 -23 15 -63 12 -88 -6
-18 -13 -36 -15 -79 -9 -31 4 -63 9 -71 13 -10 3 -13 1 -8 -6 4 -7 -4 -14 -21
-18 -15 -3 -33 -7 -40 -9 -14 -5 -62 18 -113 52 -19 13 -38 23 -42 23 -14 0
-9 -23 10 -44 12 -13 6 -12 -18 7 -57 42 -80 47 -120 27 -52 -26 -102 -48
-126 -55 -24 -6 -54 17 -54 42 0 16 -8 23 -80 78 -21 17 -37 36 -35 43 5 14
-38 17 -63 3 -24 -13 -87 1 -87 19 0 24 -43 65 -68 65 -30 0 -31 39 -1 43 15
2 24 -5 33 -26 7 -16 25 -42 41 -57 27 -26 29 -27 82 -15 l55 12 64 -66 c59
-60 68 -66 106 -66 31 0 49 7 70 26 l27 25 -29 25 -30 24 28 -10 c41 -14 44
-13 56 21 9 26 13 30 26 19 8 -6 17 -20 20 -31 7 -22 42 -26 42 -4 0 8 -3 15
-6 15 -3 0 -6 11 -6 24 0 22 3 24 29 19 25 -5 28 -4 23 12 -5 13 -3 16 8 11 8
-3 15 -1 15 5 0 6 7 6 19 -1 11 -5 26 -7 34 -4 8 3 28 -6 44 -20 29 -24 89
-44 78 -25 -7 10 42 32 55 24 12 -8 40 24 40 45 0 39 -79 66 -109 38 -11 -11
-11 -9 -2 10 7 13 21 22 34 22 30 0 87 -36 87 -56 0 -9 8 -28 19 -42 10 -15
22 -37 25 -49 8 -24 49 -33 61 -13 3 6 18 10 33 10 l26 0 -22 -16 c-27 -18
-29 -38 -4 -30 11 4 35 0 55 -9 54 -22 56 -18 12 20 l-40 35 31 0 c21 0 39 -9
59 -30 33 -35 59 -41 28 -7 -47 52 -67 179 -43 272 10 40 12 26 11 -70 -1 -75
13 -129 26 -97 2 6 15 12 27 12 35 0 47 18 97 148 10 26 5 42 -14 42 -7 1 -25
7 -42 15 l-30 13 50 1 50 0 26 -53 c19 -38 24 -58 17 -70 -10 -17 -3 -36 12
-36 5 0 24 26 42 58 17 33 47 69 65 81 37 24 37 23 23 -14 -9 -23 -13 -25 -25
-15 -15 13 -15 13 -28 -30 -2 -8 0 -23 4 -32 6 -10 5 -19 -2 -24 -14 -8 8 -24
34 -24 10 0 25 -7 33 -15 14 -13 17 -13 30 0 10 10 13 23 9 37 -7 22 -7 22 8
3 13 -17 18 -18 41 -7 41 18 44 16 72 -41 l26 -52 68 -1 c68 0 68 0 76 30 8
30 8 30 11 -11 5 -48 13 -54 28 -20 8 17 17 21 41 19 25 -2 36 3 57 32 29 37
59 39 77 6 25 -47 136 -27 159 28 7 17 20 33 28 37 13 4 14 3 3 -10 -15 -18
-15 -19 30 -38 28 -12 31 -16 13 -16 -44 -2 -31 -19 24 -30 75 -15 73 -15 73
18 0 33 10 44 29 32 10 -7 11 -13 1 -31 -16 -30 -6 -36 24 -13 24 16 26 23 21
73 -2 35 -1 44 3 25 6 -24 9 -27 17 -15 7 12 10 10 15 -9 5 -23 10 -25 73 -26
65 -1 72 2 68 33 -1 8 14 12 46 12 26 0 55 4 63 10 9 6 19 5 28 -2 10 -9 12
-8 10 3 -2 8 5 14 18 14 24 1 74 38 91 68 21 37 16 64 -12 71 -32 8 -57 -5
-75 -39 l-14 -26 -18 36 c-21 40 -17 55 14 55 11 0 31 11 44 25 14 15 34 25
51 25 21 0 24 -3 13 -10z m-257 -63 c4 -10 -3 -12 -27 -9 -27 4 -28 6 -11 13
29 11 32 11 38 -4z m-2259 -94 c10 4 15 -9 20 -40 10 -77 9 -80 -24 -48 l-30
29 0 -26 c0 -31 -26 -44 -39 -20 -13 25 -24 109 -17 128 5 12 10 13 19 6 10
-8 16 -3 27 21 l14 32 9 -43 c6 -29 13 -42 21 -39z m3886 67 c0 -5 -4 -10 -10
-10 -5 0 -10 5 -10 10 0 6 5 10 10 10 6 0 10 -4 10 -10z m-1705 -48 c-3 -3
-11 0 -18 7 -9 10 -8 11 6 5 10 -3 15 -9 12 -12z m-1799 -17 c8 -13 12 -29 8
-36 -4 -7 -12 0 -20 21 -8 18 -14 34 -14 36 0 11 11 2 26 -21z m-527 -79 c12
-11 21 -24 21 -29 0 -15 -40 24 -56 55 -8 15 -14 33 -13 40 0 7 7 -1 14 -17 7
-17 23 -39 34 -49z m281 17 c11 -12 12 -17 3 -20 -7 -3 -13 -11 -13 -19 0 -19
-7 -18 -46 7 -20 12 -34 29 -34 40 0 16 5 18 38 13 20 -3 44 -13 52 -21z m440
23 c0 -3 -4 -8 -10 -11 -5 -3 -10 -1 -10 4 0 6 5 11 10 11 6 0 10 -2 10 -4z
m674 -15 c3 -5 -3 -11 -14 -14 -20 -5 -26 3 -13 16 9 10 21 9 27 -2z m-2134
-35 c0 -15 7 -26 20 -29 19 -5 29 -27 12 -27 -19 0 -62 57 -56 73 8 23 24 11
24 -17z m2820 30 c0 -2 -11 -6 -25 -8 -13 -3 -22 -1 -19 3 5 9 44 13 44 5z
m85 -6 c8 -13 -5 -13 -25 0 -13 8 -13 10 2 10 9 0 20 -4 23 -10z m-1495 -10
c0 -5 -2 -10 -4 -10 -3 0 -8 5 -11 10 -3 6 -1 10 4 10 6 0 11 -4 11 -10z
m2426 -15 c4 -8 3 -23 0 -32 -6 -15 -8 -15 -23 -1 -16 17 -12 48 7 48 6 0 13
-7 16 -15z m92 -35 c-2 -8 -10 -16 -19 -18 -21 -4 -32 37 -17 56 10 12 14 11
25 -4 8 -10 12 -25 11 -34z m461 -54 c-8 -8 -13 -7 -16 2 -3 6 -9 9 -15 6 -13
-8 -28 15 -21 32 4 10 12 8 34 -8 21 -16 26 -25 18 -32z m-3424 -6 c3 -6 -1
-7 -9 -4 -18 7 -21 14 -7 14 6 0 13 -4 16 -10z m3385 -10 c0 -12 -34 -30 -57
-30 -13 0 -10 5 12 19 34 22 45 25 45 11z m-3037 -17 c-7 -2 -21 -2 -30 0 -10
3 -4 5 12 5 17 0 24 -2 18 -5z m2642 -24 c-10 -19 -14 -41 -10 -58 4 -20 2
-30 -9 -34 -21 -8 -29 8 -21 42 4 21 2 30 -10 35 -15 5 -14 9 6 26 13 11 32
19 42 20 16 0 16 -2 2 -31z m-2355 1 c13 -8 13 -10 -2 -10 -9 0 -20 5 -23 10
-8 13 5 13 25 0z m2106 -13 c22 -8 59 -13 84 -11 34 2 49 -3 66 -19 25 -24 23
-37 -7 -37 -10 0 -19 -4 -19 -10 0 -5 -5 -10 -11 -10 -6 0 -9 7 -5 15 3 9 0
15 -8 15 -7 0 -19 -7 -26 -15 -19 -22 -90 -19 -119 6 -21 17 -22 22 -10 30 11
7 10 10 -9 15 -18 5 -20 9 -11 20 14 17 26 17 75 1z m-3086 -86 c0 -13 -28
-22 -35 -11 -3 4 1 11 7 13 20 8 28 8 28 -2z m3440 -21 c0 -5 -7 -10 -15 -10
-8 0 -15 5 -15 10 0 6 7 10 15 10 8 0 15 -4 15 -10z m2165 -30 c-3 -5 -20 -19
-38 -30 -32 -22 -32 -22 3 9 37 32 45 37 35 21z m-105 -75 c0 -2 -10 -9 -22
-15 -22 -11 -22 -10 -4 4 21 17 26 19 26 11z m-2772 -22 c-10 -2 -28 -2 -40 0
-13 2 -5 4 17 4 22 1 32 -1 23 -4z m-648 -43 c0 -5 0 -12 0 -15 0 -14 -13 -8
-16 8 -1 9 2 17 7 17 5 0 9 -4 9 -10z m690 -10 c0 -5 -2 -10 -4 -10 -3 0 -8 5
-11 10 -3 6 -1 10 4 10 6 0 11 -4 11 -10z m-740 -19 c0 -5 -7 -12 -16 -15 -14
-5 -15 -4 -4 9 14 17 20 19 20 6z m185 -1 c-3 -5 -16 -10 -28 -9 -21 0 -21 1
-2 9 28 12 37 12 30 0z m294 6 c-12 -10 -59 -15 -59 -6 0 5 14 10 32 10 17 0
29 -2 27 -4z m-212 -12 c-3 -3 -12 -4 -19 -1 -8 3 -5 6 6 6 11 1 17 -2 13 -5z
m-168 -37 c-2 -3 -34 -7 -71 -11 -75 -7 -95 8 -25 19 23 4 49 11 57 16 14 7
50 -15 39 -24z m176 3 c-27 -12 -43 -12 -25 0 8 5 22 9 30 9 10 0 8 -3 -5 -9z
m518 3 c-7 -2 -21 -2 -30 0 -10 3 -4 5 12 5 17 0 24 -2 18 -5z m-3 -23 c0 -5
-11 -10 -24 -10 -14 0 -28 5 -31 10 -4 6 7 10 24 10 17 0 31 -4 31 -10z m-450
-8 c0 -4 -12 -9 -27 -10 -22 -1 -24 0 -13 8 18 12 40 13 40 2z m-3125 -36
c-10 -14 -24 -26 -33 -26 -11 0 -8 8 13 30 33 35 44 33 20 -4z m2818 27 c-7
-2 -19 -2 -25 0 -7 3 -2 5 12 5 14 0 19 -2 13 -5z m546 -2 c8 -5 11 -16 8 -24
-7 -18 -58 -29 -74 -15 -21 17 -14 36 15 41 15 2 29 5 32 5 3 1 11 -2 19 -7z
m81 -15 c0 -3 -4 -8 -10 -11 -5 -3 -10 -1 -10 4 0 6 5 11 10 11 6 0 10 -2 10
-4z m-210 -33 c0 -13 -52 -33 -85 -33 -17 0 -40 7 -51 16 -10 8 -14 13 -7 10
6 -3 22 -2 35 3 28 12 108 14 108 4z m-720 -13 c0 -5 -6 -10 -14 -10 -7 0 -34
-9 -60 -21 -26 -11 -55 -19 -64 -16 -10 2 -2 8 23 15 22 7 51 19 65 27 29 17
50 19 50 5z m515 1 c3 -5 1 -12 -5 -16 -5 -3 -10 1 -10 9 0 18 6 21 15 7z
m-375 -52 c0 -6 -4 -7 -10 -4 -5 3 -10 11 -10 16 0 6 5 7 10 4 6 -3 10 -11 10
-16z m276 -16 c-10 -10 -19 5 -10 18 6 11 8 11 12 0 2 -7 1 -15 -2 -18z m-231
7 c-3 -5 -14 -10 -23 -9 -14 0 -13 2 3 9 27 11 27 11 20 0z m289 -6 c20 -8 21
-30 1 -38 -16 -6 -45 2 -45 13 0 6 21 31 26 31 1 0 9 -3 18 -6z m-134 -66 c0
-12 -153 -5 -157 8 -2 5 15 20 38 31 l42 21 38 -25 c22 -14 39 -30 39 -35z
m270 53 c-8 -5 -31 -11 -50 -14 -35 -6 -35 -6 5 8 46 15 67 18 45 6z m-843
-28 c-10 -10 -97 -21 -97 -12 0 4 6 10 13 12 18 8 91 8 84 0z m-2762 -13 c-11
-5 -27 -9 -35 -9 -13 -1 -13 0 0 9 8 5 24 9 35 9 l20 0 -20 -9z m3652 -12 c-4
-43 -38 -49 -89 -18 l-33 20 35 -1 c19 -1 46 3 60 9 14 6 26 11 27 11 2 1 2
-9 0 -21z m1946 -52 c24 -51 29 -93 12 -100 -9 -3 -12 0 -9 8 7 17 -13 30 -45
31 -26 0 -30 9 -38 89 l-5 49 33 -19 c19 -11 42 -37 52 -58z m-5033 12 c0 -29
5 -87 10 -128 10 -71 50 -455 50 -472 0 -4 -6 -8 -14 -8 -9 0 -15 21 -19 73
-10 119 -46 480 -52 514 -5 30 -7 31 -48 26 -70 -8 -314 -43 -446 -64 -84 -13
-128 -16 -135 -9 -5 5 -8 11 -5 13 2 2 76 14 164 26 88 12 228 35 310 50 203
38 185 41 185 -21z m-641 31 c-13 -4 -64 -13 -112 -19 -48 -7 -87 -14 -85 -16
2 -2 20 -4 41 -6 42 -2 46 -8 16 -26 -14 -9 -61 -13 -149 -13 -123 0 -130 1
-187 30 l-58 30 70 1 c39 1 122 7 185 15 122 14 321 17 279 4z m828 -5 c-3 -3
-12 -4 -19 -1 -8 3 -5 6 6 6 11 1 17 -2 13 -5z m2628 -24 c-20 -22 -7 -27 26
-10 12 7 19 7 19 1 0 -11 -63 -31 -99 -31 -23 0 -21 2 15 30 45 34 66 39 39
10z m-495 1 c0 -10 -30 -24 -37 -17 -3 3 -2 9 2 15 8 13 35 15 35 2z m217 3
c-3 -3 -12 -4 -19 -1 -8 3 -5 6 6 6 11 1 17 -2 13 -5z m48 -4 c3 -6 -1 -7 -9
-4 -18 7 -21 14 -7 14 6 0 13 -4 16 -10z m400 -11 c11 -11 0 -11 -44 -3 -17 4
-31 11 -31 16 0 11 60 1 75 -13z m-495 -27 c-25 -4 -35 2 -26 17 5 7 13 7 27
-2 20 -12 20 -12 -1 -15z m-512 11 c-10 -2 -26 -2 -35 0 -10 3 -2 5 17 5 19 0
27 -2 18 -5z m-2119 -110 c-38 -60 -99 -165 -135 -236 -35 -70 -79 -149 -98
-175 -18 -26 -45 -68 -60 -93 l-26 -46 25 -23 c33 -31 32 -54 -6 -129 l-31
-61 -36 29 c-92 72 -226 131 -331 146 l-52 7 5 62 c3 33 5 69 5 78 1 9 9 18
19 21 10 2 0 7 -23 12 -108 22 -345 -34 -457 -109 -65 -42 -178 -158 -202
-205 -17 -33 -17 -34 0 -26 43 17 105 17 149 0 25 -9 45 -19 45 -21 0 -3 -13
-31 -30 -63 -200 -396 54 -832 485 -831 148 0 302 56 393 144 58 54 128 176
143 245 16 74 34 92 25 26 -4 -27 -9 -64 -12 -82 -5 -27 -2 -34 23 -46 37 -20
126 -124 113 -132 -6 -4 -8 -10 -6 -14 3 -4 -5 -20 -18 -35 l-22 -28 -48 41
c-26 23 -59 55 -73 71 l-25 30 -62 -57 c-84 -78 -161 -126 -248 -154 -99 -32
-283 -34 -370 -2 -144 51 -270 159 -329 283 -45 93 -50 113 -58 224 l-6 89
-42 12 c-43 13 -99 48 -120 75 -10 13 -12 13 -17 -2 -16 -48 -18 -53 -23 -41
-10 27 21 130 69 226 43 87 64 115 137 187 73 72 102 93 191 137 60 29 137 58
179 67 98 21 280 21 379 -1 137 -30 123 -38 233 125 53 79 109 157 125 174
l29 31 -35 -7 c-19 -3 -71 -11 -115 -17 -44 -6 -84 -11 -89 -12 -5 -1 -15 21
-22 48 -7 28 -16 59 -19 71 -6 19 -2 22 47 28 29 3 139 19 243 35 105 16 204
30 222 30 l32 1 -70 -107z m2408 91 c-3 -3 -12 -4 -19 -1 -8 3 -5 6 6 6 11 1
17 -2 13 -5z m-187 -14 c0 -5 -4 -10 -10 -10 -5 0 -10 5 -10 10 0 6 5 10 10
10 6 0 10 -4 10 -10z m543 -37 c-7 -2 -19 -2 -25 0 -7 3 -2 5 12 5 14 0 19 -2
13 -5z m4444 -133 c-39 -60 -124 -183 -188 -274 l-116 -164 -7 68 c-5 57 -23
134 -25 107 -1 -5 -8 -1 -17 8 -14 13 -14 23 -6 58 6 23 9 43 6 46 -2 2 -17
-8 -32 -22 -16 -15 -34 -27 -41 -27 -6 0 -47 -20 -89 -44 -42 -24 -95 -49
-117 -55 -22 -6 -45 -19 -52 -30 -11 -18 -7 -23 50 -54 301 -166 485 -381 522
-613 18 -110 6 -303 -25 -396 -79 -236 -247 -457 -489 -641 -267 -204 -675
-412 -1066 -544 -1050 -355 -2116 -523 -3305 -523 -885 0 -1576 88 -2305 291
-278 78 -748 248 -858 310 -38 21 -74 39 -80 39 -36 0 -298 156 -417 248 -256
198 -446 443 -495 636 -22 88 -30 286 -15 373 24 148 131 313 282 439 113 95
118 98 118 86 0 -6 -39 -51 -88 -99 -99 -99 -152 -174 -196 -277 -72 -170 -35
-390 97 -586 49 -72 169 -211 238 -275 113 -104 306 -237 452 -311 91 -46 72
-17 -36 56 -171 116 -277 203 -383 313 -116 121 -179 215 -239 353 -68 158
-70 327 -5 458 17 34 28 53 26 44 -3 -9 1 -22 9 -28 10 -9 14 -7 17 7 2 10 4
-31 5 -92 1 -204 60 -343 227 -538 175 -204 607 -476 1010 -637 154 -62 477
-175 570 -200 282 -77 788 -162 1224 -206 215 -21 760 -29 1069 -15 765 35
1554 167 2308 385 104 30 191 53 194 51 2 -3 -4 -16 -13 -29 -9 -14 -16 -39
-16 -55 0 -29 1 -30 58 -33 56 -3 51 -5 -258 -106 -371 -121 -377 -124 -290
-117 74 5 270 53 497 121 l157 47 82 -28 c73 -24 87 -26 119 -15 20 7 39 10
41 7 11 -11 -351 -121 -708 -217 -141 -37 -257 -80 -218 -80 32 0 352 73 490
111 148 42 562 177 818 268 156 55 171 59 152 36 -55 -66 331 102 514 224 38
25 70 51 70 56 0 6 -12 16 -27 23 -25 12 -40 6 -236 -92 -184 -91 -432 -191
-376 -151 36 26 53 47 81 99 26 49 32 54 178 131 133 71 151 84 154 108 2 15
-1 27 -7 27 -6 0 -64 -27 -128 -60 -65 -33 -121 -60 -126 -60 -4 0 0 11 9 25
10 16 14 34 10 50 -6 22 -9 24 -26 15 -15 -8 -20 -8 -20 3 0 7 30 28 67 46 99
49 241 134 306 183 31 24 82 61 113 83 91 65 225 212 283 311 28 49 52 83 52
77 1 -7 2 -19 3 -25 1 -7 11 -23 22 -35 12 -12 24 -28 27 -35 8 -22 35 2 68
59 29 52 29 53 10 69 -11 10 -17 22 -15 29 3 7 -7 15 -26 19 -17 3 -29 10 -25
16 3 5 1 10 -4 10 -6 0 -11 8 -12 18 0 14 -2 14 -9 -3 -5 -13 -8 11 -8 65 -1
159 -9 235 -37 319 -15 46 -38 93 -50 105 -27 27 -49 66 -41 73 10 11 183
-173 214 -229 74 -129 94 -268 57 -407 -27 -105 -102 -235 -191 -331 -22 -25
-43 -57 -46 -72 l-5 -27 26 19 c34 24 96 90 154 162 143 179 203 411 147 572
-52 153 -144 266 -324 400 -61 45 -131 101 -155 124 -25 23 -51 42 -58 42 -66
0 166 147 302 191 67 22 69 23 38 30 -18 3 -65 26 -104 50 -40 24 -86 52 -102
61 -56 32 -50 35 75 41 140 7 486 43 538 56 73 18 73 16 -3 -99z m-1362 5
c-48 -16 -83 -19 -69 -6 5 5 25 11 44 14 61 7 66 5 25 -8z m-4495 -6 c-11 -8
-8 -9 15 -4 43 9 29 1 -45 -28 -88 -35 -95 -36 -95 -12 0 16 12 23 60 37 72
20 85 21 65 7z m3984 -10 c77 -11 212 -36 298 -55 86 -19 160 -35 165 -36 4
-1 -30 -4 -77 -7 -66 -5 -112 -1 -205 16 -66 12 -196 32 -290 43 -156 18 -256
37 -212 39 10 1 15 6 12 11 -11 17 158 11 309 -11z m-1244 -4 c-14 -8 -29 -14
-35 -14 -5 0 1 6 15 14 14 8 30 14 35 14 6 0 -1 -6 -15 -14z m-80 -34 c-19
-10 -132 -55 -250 -101 -500 -191 -624 -239 -640 -249 -12 -8 -15 -52 -18
-243 -4 -237 -6 -248 -43 -248 -15 0 -17 25 -20 234 -2 129 -6 237 -9 239 -3
3 -68 12 -145 21 -77 9 -198 23 -268 33 -125 16 -128 17 -144 46 l-15 30 78
-7 c44 -4 97 -9 119 -12 27 -3 34 -2 21 4 -19 8 -19 9 0 17 10 4 25 7 32 6 6
-1 20 3 30 8 11 7 13 10 3 11 -11 0 -11 3 -1 15 7 9 19 14 26 11 7 -3 16 -1
19 5 8 12 151 79 170 79 8 0 15 4 15 9 0 5 9 11 20 14 11 3 20 1 20 -4 0 -4
10 -13 21 -20 15 -8 19 -8 15 0 -10 16 3 13 21 -4 10 -11 26 -14 49 -10 19 2
34 1 34 -4 0 -6 8 -10 18 -10 33 0 67 -9 117 -31 38 -16 46 -23 35 -30 -28
-18 -1 -10 117 34 168 62 223 78 217 61 -3 -7 0 -16 7 -21 7 -4 10 -3 6 3 -4
6 3 11 17 11 30 0 160 43 262 87 85 36 121 45 64 16z m-4310 5 c0 -3 -4 -8
-10 -11 -5 -3 -10 -1 -10 4 0 6 5 11 10 11 6 0 10 -2 10 -4z m2500 -48 c62
-25 87 -42 143 -101 75 -78 94 -109 126 -206 15 -47 21 -86 19 -145 -1 -65 -2
-70 -5 -27 -2 30 -10 59 -17 65 -8 6 -16 26 -20 44 -8 46 -72 172 -103 202
l-25 25 22 -44 c61 -123 73 -208 54 -401 -17 -178 -22 -200 -44 -200 -27 0
-31 35 -28 241 2 169 0 189 -20 244 -29 77 -87 136 -179 182 -63 31 -71 38
-62 54 14 27 46 32 107 16 28 -8 52 -13 52 -11 0 10 -103 54 -153 65 -58 14
-71 24 -39 32 31 9 95 -4 172 -35z m-300 8 c0 -8 -19 -21 -41 -30 -96 -39
-202 -165 -250 -296 -22 -61 -24 -63 -27 -32 -7 72 65 211 148 286 40 36 129
84 158 85 6 1 12 -5 12 -13z m3305 -27 c70 -9 224 -45 234 -54 1 -2 -24 -18
-58 -35 -34 -17 -74 -44 -90 -60 -15 -17 -36 -30 -46 -30 -33 0 -221 64 -198
68 31 5 45 26 41 64 -2 22 -10 36 -25 44 -31 15 -18 25 26 19 20 -3 72 -10
116 -16z m-5584 -46 c-24 -34 -68 -83 -60 -68 3 5 20 29 38 53 36 46 55 59 22
15z m354 -171 c-10 -10 -12 4 -18 103 l-6 100 15 -99 c8 -54 12 -101 9 -104z
m1875 148 c11 -7 4 -19 -37 -63 -92 -97 -118 -168 -143 -392 -7 -55 -18 -111
-25 -125 l-13 -25 -13 28 c-10 23 -10 53 0 160 16 163 27 220 56 277 23 44 91
117 130 138 25 14 26 14 45 2z m-1630 -19 c0 -6 -4 -13 -10 -16 -5 -3 -10 1
-10 9 0 9 5 16 10 16 6 0 10 -4 10 -9z m5741 -5 c95 -21 239 -67 239 -78 0 -5
10 -4 21 3 13 7 19 7 15 1 -3 -6 38 -55 92 -109 160 -160 235 -303 251 -477 9
-98 -1 -218 -24 -272 -21 -52 -24 -41 -8 34 16 72 22 236 10 249 -5 4 -14 3
-21 -2 -8 -6 -52 -36 -98 -67 l-85 -57 -13 -61 c-19 -88 -69 -186 -128 -251
l-51 -56 56 -77 c43 -60 53 -80 44 -89 -8 -8 -14 -8 -19 -2 -4 6 -26 38 -49
72 -24 34 -43 66 -43 72 0 5 -33 -5 -72 -24 -40 -18 -101 -40 -134 -49 -79
-20 -213 -20 -289 0 -33 8 -72 13 -87 10 -19 -4 -26 -2 -23 7 3 7 -21 30 -51
52 -72 51 -152 137 -186 201 -37 68 -68 187 -68 259 l0 61 -37 -4 c-29 -3 -48
3 -83 27 -51 34 -52 33 -69 -49 -8 -38 -8 -78 -1 -130 12 -97 11 -106 -6 -45
-26 96 -13 225 39 367 57 159 199 326 335 396 78 40 176 75 185 65 3 -3 12 -1
19 3 48 32 232 42 339 20z m-6051 -20 c0 -2 -8 -10 -17 -17 -16 -13 -17 -12
-4 4 13 16 21 21 21 13z m-56 -76 c-15 -22 -29 -40 -31 -40 -5 0 3 15 29 53
30 43 31 32 2 -13z m496 -15 c0 -9 -9 -15 -25 -15 -15 0 -40 -7 -56 -16 -17
-8 -34 -13 -37 -10 -11 11 14 27 64 40 27 7 50 14 52 15 1 0 2 -6 2 -14z
m6055 -45 c10 -11 16 -20 13 -20 -3 0 -13 9 -23 20 -10 11 -16 20 -13 20 3 0
13 -9 23 -20z m-4634 -47 c-5 -10 -16 -79 -25 -152 -9 -74 -19 -137 -21 -140
-8 -8 -5 100 5 179 10 80 26 130 42 130 5 0 5 -7 -1 -17z m-1554 -129 c-2 -2
-46 -22 -98 -44 -51 -22 -88 -35 -81 -28 7 7 12 19 12 28 0 21 29 47 105 98
l60 40 3 -45 c2 -25 1 -47 -1 -49z m-410 24 c65 -54 150 -159 176 -218 34 -75
67 -211 72 -290 l4 -75 -13 85 c-18 112 -63 240 -84 240 -4 0 -25 -23 -47 -50
-38 -49 -133 -136 -139 -129 -2 2 -6 21 -9 41 -4 26 -2 38 7 40 7 2 48 36 90
75 l78 73 -29 52 c-15 29 -61 85 -101 125 -81 82 -83 95 -5 31z m1340 -104 c0
-15 -13 -13 -67 9 l-25 10 25 7 c30 8 67 -6 67 -26z m2903 -88 c0 -2 -7 -7
-16 -10 -8 -3 -12 -2 -9 4 6 10 25 14 25 6z m-5030 -20 c0 -2 -8 -10 -17 -17
-16 -13 -17 -12 -4 4 13 16 21 21 21 13z m4507 -58 c-3 -8 -6 -5 -6 6 -1 11 2
17 5 13 3 -3 4 -12 1 -19z m1478 -64 c-8 -71 9 -234 31 -298 18 -50 17 -58 -2
-23 -35 65 -55 246 -38 350 11 61 16 42 9 -29z m-3346 -55 c76 -7 116 -7 151
1 40 10 72 8 191 -10 79 -12 176 -26 214 -30 39 -5 95 -15 125 -22 47 -12 55
-18 58 -40 3 -22 11 -28 53 -38 76 -18 51 -23 -50 -10 -80 10 -93 10 -107 -4
-8 -9 -19 -14 -24 -11 -4 3 -11 -11 -14 -30 -7 -36 -26 -58 -26 -29 0 13 -3
14 -14 5 -15 -13 -26 4 -26 40 0 18 -2 19 -29 5 -28 -15 -28 -15 -41 25 -9 26
-21 41 -34 44 -45 10 -180 36 -363 70 -105 19 -202 39 -215 45 -20 8 -18 9 12
5 19 -3 82 -10 139 -16z m1906 -11 c-11 -7 -87 -41 -169 -78 -165 -72 -152
-60 -220 -210 -18 -41 -38 -86 -42 -100 -8 -23 -9 -21 -15 20 -4 30 -7 1 -9
-85 -2 -142 -16 -341 -19 -285 -1 27 -4 31 -11 20 -8 -12 -10 -12 -10 -1 0 10
-3 11 -13 2 -12 -9 -15 8 -20 96 -4 58 -7 177 -7 263 l0 156 -75 13 c-123 20
-99 39 41 32 49 -2 116 13 299 70 86 26 256 87 263 93 3 3 10 6 16 6 6 0 2 -6
-9 -12z m-2308 -225 c-2 -16 -4 -5 -4 22 0 28 2 40 4 28 2 -13 2 -35 0 -50z
m686 -14 c-2 -8 7 -19 19 -24 13 -6 33 -25 45 -44 38 -56 28 -129 -25 -184
-24 -25 -27 -37 -32 -132 -3 -57 -9 -107 -12 -110 -9 -9 -90 28 -107 48 -21
26 -27 141 -9 170 14 21 14 25 -3 46 -58 71 -21 201 63 218 15 3 28 12 28 20
0 8 7 13 18 11 9 -2 16 -10 15 -19z m-708 -248 c-9 -108 -19 -198 -22 -201 -6
-5 0 83 19 300 7 74 14 127 16 116 2 -10 -4 -106 -13 -215z m-2326 46 c115
-122 280 -174 456 -144 33 6 36 5 15 -4 -77 -32 -242 -15 -348 37 -67 33 -160
119 -190 175 -13 25 -15 33 -5 19 10 -14 42 -51 72 -83z m2818 21 c-3 -8 -6
-5 -6 6 -1 11 2 17 5 13 3 -3 4 -12 1 -19z m22 -48 c11 -24 11 -24 -3 -6 -9
11 -16 24 -16 30 0 12 5 7 19 -24z m3377 -238 c-2 -2 -28 9 -56 23 -42 21 -54
24 -61 13 -22 -34 -129 -248 -129 -257 0 -6 54 -36 120 -67 66 -32 118 -59
116 -62 -3 -2 -61 21 -131 52 -69 31 -130 56 -135 56 -4 0 24 60 63 133 39 72
75 142 81 153 l10 22 63 -31 c34 -17 61 -33 59 -35z m314 50 c0 -4 -4 -12 -9
-17 -5 -6 -31 -50 -57 -100 -26 -49 -49 -92 -50 -94 -2 -2 -21 4 -44 13 -52
21 -50 21 -50 -13 0 -16 -9 -50 -20 -76 -19 -43 -22 -47 -48 -40 -42 10 -162
67 -162 77 0 4 -11 6 -25 2 -31 -8 -31 -1 0 40 34 44 57 104 50 126 -6 19 -5
19 47 1 29 -10 95 -39 146 -64 l92 -46 50 100 c30 59 56 99 65 99 8 0 15 -4
15 -8z m-5588 -52 c-101 -94 -197 -149 -342 -195 -67 -21 -110 -27 -200 -30
-63 -2 -95 -1 -70 1 96 8 198 26 260 46 111 35 260 113 328 173 79 68 96 72
24 5z m1876 -74 c-9 -33 -9 -49 -1 -57 15 -15 211 -52 242 -46 23 5 24 4 8 -8
-14 -10 -35 -9 -115 6 -53 10 -105 18 -115 19 -30 0 -42 42 -27 95 7 25 15 44
17 42 2 -3 -2 -25 -9 -51z m4190 -13 c-10 -2 -26 -2 -35 0 -10 3 -2 5 17 5 19
0 27 -2 18 -5z m-359 -147 c29 -16 153 -61 211 -78 51 -15 52 -17 30 -48 -11
-16 -36 -61 -56 -100 -42 -86 -33 -86 -214 -9 -143 61 -135 57 -127 66 4 3 71
-21 149 -55 78 -34 142 -61 143 -60 2 2 21 40 44 86 l41 82 -22 9 c-13 5 -70
30 -128 55 -58 25 -110 46 -117 46 -6 0 -15 5 -18 10 -9 15 32 12 64 -4z
m-4082 -12 c-3 -3 -12 -4 -19 -1 -8 3 -5 6 6 6 11 1 17 -2 13 -5z m347 -59
c292 -53 423 -82 380 -84 -37 -2 -702 124 -713 135 -10 10 50 1 333 -51z
m3416 -19 c0 -2 -30 -67 -66 -145 -56 -119 -64 -144 -53 -157 11 -14 120 -74
133 -74 3 0 13 15 22 33 25 50 137 217 142 212 2 -2 -18 -41 -46 -87 -27 -46
-65 -112 -83 -147 -19 -36 -35 -58 -37 -49 -2 9 -42 35 -90 59 -48 24 -88 44
-90 45 -2 1 6 17 17 35 11 19 41 84 66 144 26 61 52 116 57 123 10 11 28 17
28 8z m-114 -63 c-8 -15 -15 -25 -16 -21 0 12 23 58 27 54 3 -2 -2 -17 -11
-33z m-5384 -156 c131 -93 324 -189 497 -248 46 -16 87 -26 92 -24 4 3 23 -5
43 -18 19 -14 69 -35 110 -47 42 -13 74 -25 73 -27 -5 -5 -247 44 -350 71
-155 41 -387 121 -484 166 -78 36 -313 184 -313 197 0 2 15 -4 33 -15 24 -15
35 -17 43 -9 6 7 22 21 37 31 14 11 28 30 32 43 5 23 7 22 65 -26 32 -27 87
-69 122 -94z m6054 64 c-15 -28 -28 -51 -31 -51 -3 0 7 25 22 55 15 30 29 53
31 51 2 -2 -8 -27 -22 -55z m-713 4 c-9 -19 -18 -33 -21 -31 -4 5 26 66 33 66
3 0 -3 -16 -12 -35z m433 -33 c-5 -4 -66 26 -66 33 0 3 16 -3 35 -12 19 -9 33
-18 31 -21z m-513 -127 c-3 -9 -8 -14 -10 -11 -3 3 -2 9 2 15 9 16 15 13 8 -4z
m622 -55 c32 -11 70 -20 84 -20 l26 -1 -29 -15 c-33 -18 -320 -124 -336 -124
-15 0 -12 16 6 31 9 7 31 37 50 67 34 53 75 81 120 82 11 0 47 -9 79 -20z"/>
<path d="M2350 7100 c8 -5 20 -10 25 -10 6 0 3 5 -5 10 -8 5 -19 10 -25 10 -5
0 -3 -5 5 -10z"/>
<path d="M2065 6930 c3 -5 14 -10 23 -10 15 0 15 2 2 10 -20 13 -33 13 -25 0z"/>
<path d="M8699 7040 c-50 -26 -176 -58 -284 -71 -88 -11 -117 -18 -79 -20 15
-1 13 -3 -6 -9 -24 -8 -24 -8 6 -9 34 -1 220 23 303 39 29 5 56 10 59 10 3 0
1 5 -6 12 -13 13 -17 32 -4 25 4 -2 18 6 32 19 29 29 26 29 -21 4z"/>
<path d="M7900 6640 c6 -11 12 -20 13 -20 2 0 3 9 3 20 0 11 -6 20 -13 20 -11
0 -11 -5 -3 -20z"/>
<path d="M7978 6613 c6 -2 18 -2 25 0 6 3 1 5 -13 5 -14 0 -19 -2 -12 -5z"/>
<path d="M7756 6600 c6 -6 30 -12 54 -14 25 -2 36 -2 25 1 -11 2 -35 8 -54 13
-22 6 -31 6 -25 0z"/>
<path d="M7790 6485 c13 -14 26 -25 28 -25 3 0 -5 11 -18 25 -13 14 -26 25
-28 25 -3 0 5 -11 18 -25z"/>
<path d="M7860 6440 c14 -11 31 -20 38 -20 6 0 11 -5 10 -11 -2 -6 4 -14 12
-16 13 -4 13 -3 0 6 -13 10 -13 11 0 11 8 0 -3 12 -25 25 -48 30 -70 33 -35 5z"/>
<path d="M4825 7221 c-7 -12 29 -33 39 -24 3 3 6 12 6 20 0 15 -36 18 -45 4z"/>
<path d="M6097 7223 c-10 -9 -9 -23 2 -23 5 0 11 7 15 15 5 15 -5 20 -17 8z"/>
<path d="M5420 7180 c0 -6 -14 -19 -32 -30 -28 -17 -30 -20 -13 -26 13 -5 24
1 42 22 25 31 29 44 13 44 -5 0 -10 -5 -10 -10z"/>
<path d="M5253 7163 c-43 -8 -23 -18 40 -20 56 -2 60 -1 43 13 -20 14 -39 16
-83 7z"/>
<path d="M5138 7133 c7 -3 16 -2 19 1 4 3 -2 6 -13 5 -11 0 -14 -3 -6 -6z"/>
<path d="M5506 7115 c4 -8 10 -15 15 -15 4 0 6 7 3 15 -4 8 -10 15 -15 15 -4
0 -6 -7 -3 -15z"/>
<path d="M5552 7114 c20 -20 115 -37 136 -25 13 7 11 10 -6 15 -12 4 -26 4
-32 1 -5 -3 -20 1 -32 9 -12 9 -36 16 -52 16 -28 0 -29 -1 -14 -16z"/>
<path d="M4260 7010 c0 -5 5 -10 11 -10 5 0 7 5 4 10 -3 6 -8 10 -11 10 -2 0
-4 -4 -4 -10z"/>
<path d="M4310 6943 c14 -3 30 -9 37 -15 7 -5 18 -6 25 -2 15 9 -22 22 -62 22
l-25 -1 25 -4z"/>
<path d="M5215 6795 c-16 -7 -23 -14 -15 -14 8 -1 24 -4 35 -7 16 -4 21 0 22
15 2 24 -2 25 -42 6z"/>
<path d="M5130 6750 c0 -5 5 -10 11 -10 5 0 7 5 4 10 -3 6 -8 10 -11 10 -2 0
-4 -4 -4 -10z"/>
<path d="M4786 6695 c-3 -9 0 -15 9 -15 9 0 12 6 9 15 -4 8 -7 15 -9 15 -2 0
-5 -7 -9 -15z"/>
<path d="M6434 7055 c10 -8 23 -12 29 -8 11 7 -12 23 -33 23 -12 -1 -11 -4 4
-15z"/>
<path d="M605 4795 c13 -86 59 -202 81 -202 18 0 12 32 -17 88 -12 24 -33 69
-46 99 -23 54 -24 54 -18 15z"/>
<path d="M9450 4689 c-41 -55 -126 -150 -189 -211 -90 -87 -114 -116 -115
-138 -1 -25 1 -27 19 -17 45 24 186 179 252 278 62 92 119 189 111 189 -2 0
-37 -46 -78 -101z"/>
<path d="M901 4658 c0 -7 10 -27 22 -44 182 -261 194 -274 242 -274 19 0 37 5
40 10 3 6 15 10 26 10 10 0 19 4 19 9 0 9 -137 146 -182 180 -14 12 -31 21
-36 21 -6 0 -20 12 -31 28 -24 33 -101 79 -100 60z"/>
<path d="M754 4514 c-4 -10 -11 -22 -16 -25 -17 -11 107 -163 218 -268 152
-144 447 -339 466 -308 23 36 7 53 -134 149 -179 121 -297 220 -405 340 -131
144 -121 135 -129 112z"/>
<path d="M945 4191 c101 -108 353 -294 494 -365 70 -36 58 -19 -21 29 -102 62
-276 188 -382 277 -129 109 -152 123 -91 59z"/>
<path d="M1930 3801 c0 -13 218 -100 400 -160 211 -69 454 -130 414 -103 -14
9 -23 57 -14 71 4 8 55 2 161 -18 281 -54 330 -54 119 -1 -122 31 -204 65
-194 81 7 11 -71 31 -136 34 -65 4 -285 44 -431 80 -57 14 -107 25 -110 25
-12 0 -48 -37 -42 -44 10 -10 1 -8 -77 19 -81 28 -90 29 -90 16z"/>
<path d="M2144 3625 c-4 -8 -4 -21 -1 -28 8 -21 398 -128 742 -203 80 -18 268
-44 305 -43 23 0 23 1 5 9 -11 5 -78 20 -150 35 -264 55 -560 134 -780 211
-114 39 -114 39 -121 19z"/>
<path d="M7512 3593 c-12 -2 -20 -9 -17 -14 3 -5 0 -6 -8 -3 -20 7 -94 -11
-162 -41 -50 -23 -57 -28 -42 -37 20 -11 34 -8 144 24 40 11 70 25 66 30 -3 6
3 7 16 3 16 -5 20 -3 15 9 -4 10 -1 16 9 16 9 0 19 5 22 10 6 10 -2 11 -43 3z"/>
<path d="M5775 3534 c-60 -7 -254 -27 -430 -44 -176 -17 -331 -33 -344 -36
-20 -4 -21 -7 -9 -17 39 -31 25 -66 -27 -68 -16 0 -24 -3 -18 -6 16 -6 392 22
573 42 222 26 486 71 429 74 -12 1 -15 8 -11 29 3 15 10 30 16 34 16 11 -52 8
-179 -8z"/>
<path d="M6140 3454 c-132 -27 -600 -103 -760 -123 -483 -60 -908 -80 -1329
-62 -163 7 -327 14 -366 16 l-70 5 50 -15 c53 -15 137 -31 245 -45 365 -46
1034 -46 1325 0 405 66 425 70 425 90 0 6 4 9 9 5 5 -3 12 -1 15 4 4 5 25 12
49 16 62 10 448 102 477 114 34 13 8 12 -70 -5z"/>
<path d="M4294 3430 c-94 -4 -197 -11 -230 -16 -32 -4 -65 -8 -71 -7 -7 0 -10
-4 -6 -10 4 -6 0 -8 -11 -4 -11 4 -15 3 -10 -4 4 -7 -3 -10 -17 -9 -13 1 -42
1 -64 -1 -101 -6 136 -18 460 -22 193 -3 331 -3 307 0 -35 3 -45 9 -53 29 -5
14 -7 29 -4 33 4 8 -84 22 -115 19 -8 -1 -92 -4 -186 -8z"/>
<path d="M3778 3383 c12 -2 30 -2 40 0 9 3 -1 5 -23 4 -22 0 -30 -2 -17 -4z"/>
<path d="M6280 3360 c-52 -11 -131 -24 -175 -31 -137 -21 -65 -21 104 0 101
12 169 26 183 35 21 15 21 16 3 15 -11 -1 -63 -9 -115 -19z"/>
<path d="M8160 6015 c-103 -18 -175 -47 -256 -104 -67 -47 -144 -122 -144
-140 0 -5 24 -7 53 -5 28 3 89 8 133 12 l82 8 -68 -63 c-109 -101 -170 -239
-170 -383 0 -231 133 -412 365 -496 70 -25 93 -29 185 -28 167 0 262 36 368
137 89 86 157 218 151 294 -5 66 0 95 17 89 10 -4 45 11 88 38 40 24 83 47 94
50 27 9 27 8 1 92 -26 85 -65 156 -131 234 -52 63 -79 77 -34 18 26 -35 49
-84 59 -128 5 -21 -3 -36 -43 -79 l-49 -53 -25 50 c-79 156 -264 276 -470 307
-50 7 -86 13 -80 14 6 1 14 21 17 45 9 65 26 94 56 99 14 2 -8 4 -49 4 -41 1
-109 -5 -150 -12z m248 -388 c-43 -44 -215 -136 -250 -134 -14 1 -24 5 -21 10
15 24 215 135 268 148 17 4 31 7 33 8 2 1 -12 -14 -30 -32z m-531 -379 c-3 -8
-6 -5 -6 6 -1 11 2 17 5 13 3 -3 4 -12 1 -19z m79 -171 c22 -35 23 -39 6 -23
-27 24 -82 132 -82 160 0 12 11 -5 24 -37 14 -32 37 -77 52 -100z m45 -64 c13
-16 12 -17 -3 -4 -10 7 -18 15 -18 17 0 8 8 3 21 -13z m174 -105 l30 -17 -30
0 c-19 0 -43 11 -64 29 l-33 28 33 -12 c19 -6 48 -19 64 -28z"/>
<path d="M5653 5143 c-7 -2 -12 -19 -12 -36 2 -28 2 -29 6 -7 3 14 10 31 15
38 11 13 10 13 -9 5z"/>
</g>
</svg>
